<?xml version="1.0" encoding="UTF-8" standalone="yes"?>
<svg width="200" height="200" viewBox="0 0 200 200" version="1.2" baseProfile="tiny-ps" xmlns="http://www.w3.org/2000/svg">
  <title>bimi-svg-tiny-12-ps</title>
  <g>
    <path d="M 101.24 177.25 C97.27,179.18 92.46,179.55 91.50,178.00 C91.16,177.45 90.03,177.00 89.00,177.00 C87.96,177.00 85.63,175.23 83.81,173.06 C81.14,169.88 80.44,168.10 80.18,163.81 C79.56,153.37 79.53,142.40 80.10,136.50 C80.82,129.12 85.82,118.08 90.71,113.10 C92.65,111.12 95.19,108.49 96.35,107.25 C97.51,106.01 98.88,105.00 99.40,105.00 C99.92,105.00 101.05,104.38 101.92,103.61 C103.91,101.86 112.64,100.00 118.80,100.01 C124.70,100.01 130.75,101.66 133.87,104.11 C135.19,105.15 137.10,106.00 138.10,106.00 C139.11,106.00 141.64,106.97 143.72,108.15 C145.80,109.34 149.19,111.22 151.25,112.34 C153.31,113.46 155.00,114.74 155.00,115.19 C155.00,115.63 155.69,116.00 156.52,116.00 C158.59,116.00 166.77,123.66 167.57,126.34 C167.92,127.53 169.10,129.20 170.18,130.06 C172.85,132.18 173.76,139.12 171.60,140.91 C170.72,141.65 170.00,142.78 170.00,143.44 C170.00,144.10 168.25,145.79 166.11,147.19 C161.43,150.26 148.43,152.45 140.67,151.48 C136.03,150.90 135.19,151.10 132.77,153.34 C131.28,154.72 129.04,156.17 127.78,156.57 C126.53,156.96 120.85,161.38 115.17,166.39 C109.48,171.40 103.22,176.29 101.24,177.25 ZM 75.12 88.56 C72.64,90.25 70.30,90.96 67.52,90.86 C58.14,90.53 55.85,89.64 48.10,83.35 C44.52,80.45 38.00,67.20 38.00,62.84 C38.00,57.69 40.86,49.82 43.66,47.25 C45.57,45.50 47.31,45.00 51.50,45.00 C54.46,45.00 57.14,45.41 57.45,45.91 C57.76,46.42 59.72,47.12 61.82,47.47 C66.74,48.30 72.62,53.71 77.79,62.13 C79.02,64.13 79.92,66.61 79.80,67.63 C79.68,68.66 79.96,71.21 80.41,73.29 C81.70,79.20 79.48,85.60 75.12,88.56 ZM 113.39 71.00 C110.96,72.84 108.38,73.91 106.50,73.86 C102.57,73.74 100.00,73.04 100.00,72.08 C100.00,71.66 98.39,70.46 96.42,69.41 C93.15,67.66 89.00,61.30 89.00,58.02 C89.00,57.42 88.23,55.75 87.29,54.31 C86.34,52.88 85.27,48.78 84.90,45.22 C84.32,39.63 84.56,38.02 86.62,33.52 C89.35,27.56 90.83,26.10 96.72,23.55 C100.88,21.75 101.00,21.75 106.22,23.98 C113.20,26.96 113.66,27.39 117.18,34.36 C120.89,41.71 123.27,50.50 122.50,54.02 C120.95,61.07 117.14,68.16 113.39,71.00 ZM 158.34 92.60 C154.39,96.33 153.06,97.00 149.56,97.00 C145.12,97.00 141.00,94.79 141.00,92.41 C141.00,91.60 140.29,90.67 139.43,90.33 C138.56,90.00 136.73,87.20 135.35,84.12 C133.17,79.22 132.89,77.36 133.18,69.58 C133.39,63.58 133.91,60.53 134.75,60.25 C135.44,60.02 136.00,59.21 136.00,58.45 C136.00,56.19 143.13,49.13 146.07,48.49 C148.66,47.92 151.59,48.90 158.16,52.55 C162.75,55.09 167.96,65.97 167.99,73.08 C167.99,75.05 166.88,78.87 165.50,81.58 C164.13,84.29 163.01,86.88 163.00,87.35 C163.00,87.82 160.90,90.18 158.34,92.60 ZM 64.64 137.91 C56.13,143.76 44.40,141.31 35.35,131.81 C32.39,128.70 27.00,117.12 27.00,113.86 C27.00,111.50 30.65,104.67 32.94,102.75 C36.15,100.05 47.30,100.34 52.69,103.25 C57.32,105.76 63.20,110.84 65.42,114.26 C67.70,117.77 70.76,130.41 69.90,132.75 C69.48,133.88 67.11,136.20 64.64,137.91 Z" fill="rgb(141,225,234)"/>
    <path d="M 115.43 71.93 C112.56,74.45 111.09,74.99 107.22,74.96 C98.15,74.87 89.83,67.63 85.85,56.35 C82.80,47.70 83.55,35.31 87.50,28.86 C91.08,23.04 94.49,21.00 100.65,21.00 C108.56,21.01 114.71,25.73 119.52,35.50 C126.13,48.91 124.43,64.03 115.43,71.93 ZM 113.39 71.00 C117.14,68.16 120.95,61.07 122.50,54.02 C123.27,50.50 120.89,41.71 117.18,34.36 C113.66,27.39 113.20,26.96 106.22,23.98 C101.00,21.75 100.88,21.75 96.72,23.55 C90.83,26.10 89.35,27.56 86.62,33.52 C84.56,38.02 84.32,39.63 84.90,45.22 C85.27,48.78 86.34,52.88 87.29,54.31 C88.23,55.75 89.00,57.42 89.00,58.02 C89.00,61.30 93.15,67.66 96.42,69.41 C98.39,70.46 100.00,71.66 100.00,72.08 C100.00,73.04 102.57,73.74 106.50,73.86 C108.38,73.91 110.96,72.84 113.39,71.00 ZM 115.17 166.44 C109.49,171.42 103.22,176.29 101.24,177.25 C103.22,176.29 109.49,171.40 115.17,166.39 C120.85,161.38 126.53,156.96 127.78,156.57 C129.04,156.17 131.28,154.72 132.77,153.34 C135.19,151.10 136.03,150.90 140.67,151.48 C148.43,152.45 161.43,150.26 166.11,147.19 C168.25,145.79 170.00,144.10 170.00,143.44 C170.00,142.78 170.72,141.65 171.60,140.91 C173.76,139.12 172.85,132.18 170.18,130.06 C169.10,129.20 167.92,127.53 167.57,126.34 C166.77,123.66 158.59,116.00 156.52,116.00 C155.69,116.00 155.00,115.63 155.00,115.19 C155.00,114.74 153.31,113.46 151.25,112.34 C149.19,111.22 145.80,109.34 143.72,108.15 C141.64,106.97 139.11,106.00 138.10,106.00 C137.10,106.00 135.19,105.15 133.87,104.11 C130.75,101.66 124.70,100.01 118.80,100.01 C112.64,100.00 103.91,101.86 101.92,103.61 C101.05,104.38 99.92,105.00 99.40,105.00 C98.88,105.00 97.51,106.01 96.35,107.25 C95.19,108.49 92.65,111.12 90.71,113.10 C85.82,118.08 80.82,129.12 80.10,136.50 C79.53,142.40 79.56,153.37 80.18,163.81 C80.33,166.31 80.63,167.96 81.39,169.53 C80.29,167.48 79.42,165.21 79.02,163.10 C77.02,152.56 78.13,136.80 81.66,125.45 C85.47,113.24 97.99,101.39 109.65,98.97 C114.05,98.05 117.05,98.05 122.39,98.93 C134.51,100.93 154.35,111.45 164.83,121.43 C171.99,128.25 174.41,133.03 173.61,138.83 C172.88,144.15 172.01,145.32 166.32,148.66 C162.56,150.86 160.25,151.31 149.19,151.99 C132.44,153.01 128.66,154.62 115.17,166.44 ZM 158.34 92.60 C160.90,90.18 163.00,87.82 163.00,87.35 C163.01,86.88 164.13,84.29 165.50,81.58 C166.66,79.31 167.63,76.24 167.91,74.15 C167.63,81.47 165.04,88.58 160.07,93.43 C156.80,96.63 155.31,97.34 151.31,97.63 C145.80,98.03 143.63,97.28 139.69,93.61 C128.76,83.41 129.05,60.51 140.25,50.40 C144.07,46.95 144.52,46.80 150.13,47.20 C154.93,47.55 156.57,48.16 159.09,50.56 C164.66,55.84 167.61,63.68 167.91,71.55 C167.24,64.50 162.43,54.92 158.16,52.55 C151.59,48.90 148.66,47.92 146.07,48.49 C143.13,49.13 136.00,56.19 136.00,58.45 C136.00,59.21 135.44,60.02 134.75,60.25 C133.91,60.53 133.39,63.58 133.18,69.58 C132.89,77.36 133.17,79.22 135.35,84.12 C136.73,87.20 138.56,90.00 139.43,90.33 C140.29,90.67 141.00,91.60 141.00,92.41 C141.00,94.79 145.12,97.00 149.56,97.00 C153.06,97.00 154.39,96.33 158.34,92.60 ZM 75.12 88.56 C79.48,85.60 81.70,79.20 80.41,73.29 C79.96,71.21 79.68,68.66 79.80,67.63 C79.86,67.09 79.64,66.14 79.23,65.07 C81.06,68.77 81.50,71.15 81.50,76.50 C81.50,84.52 79.94,87.84 74.70,91.04 C64.33,97.37 47.06,88.20 39.58,72.40 C34.60,61.88 35.32,53.26 41.67,47.27 C44.79,44.33 45.74,44.00 51.10,44.00 C60.22,44.00 68.59,48.96 75.02,57.99 C70.59,51.95 65.88,48.15 61.82,47.47 C59.72,47.12 57.76,46.42 57.45,45.91 C57.14,45.41 54.46,45.00 51.50,45.00 C47.31,45.00 45.57,45.50 43.66,47.25 C40.86,49.82 38.00,57.69 38.00,62.84 C38.00,67.20 44.52,80.45 48.10,83.35 C55.85,89.64 58.14,90.53 67.52,90.86 C70.30,90.96 72.64,90.25 75.12,88.56 ZM 64.64 137.91 C67.11,136.20 69.48,133.88 69.90,132.75 C70.76,130.41 67.70,117.77 65.42,114.26 C63.20,110.84 57.32,105.76 52.69,103.25 C47.30,100.34 36.15,100.05 32.94,102.75 C30.65,104.67 27.00,111.50 27.00,113.86 C27.00,116.90 31.70,127.21 34.74,131.09 C30.97,127.32 28.02,123.13 27.02,119.58 C22.48,103.36 35.61,94.54 53.00,102.13 C61.79,105.97 70.11,116.58 71.59,125.86 C72.48,131.38 69.17,138.22 64.55,140.41 C61.03,142.08 54.29,142.37 49.89,141.04 C48.15,140.51 46.31,139.68 44.47,138.63 C51.44,142.03 58.80,141.92 64.64,137.91 ZM 89.03 177.00 C90.06,177.01 91.16,177.46 91.50,178.00 C91.59,178.15 91.72,178.28 91.87,178.39 C91.40,178.23 90.94,178.03 90.50,177.78 C90.06,177.54 89.54,177.27 89.03,177.00 ZM 82.29 171.09 C82.71,171.70 83.21,172.35 83.81,173.06 C84.70,174.12 85.72,175.09 86.64,175.80 C85.19,174.97 83.64,173.22 82.29,171.09 ZM 101.24 177.25 C99.71,177.99 98.24,178.48 96.83,178.72 C98.26,178.44 99.80,177.95 101.24,177.25 Z" fill="rgb(160,225,233)"/>
    <path d="M 101.43 180.03 C100.02,180.56 96.35,181.00 93.28,181.00 C88.04,181.00 87.46,180.75 83.98,176.98 C79.35,171.96 75.55,161.72 77.18,158.66 C77.91,157.30 78.05,152.59 77.60,144.47 C77.04,134.43 77.18,132.10 78.38,131.10 C79.19,130.43 80.16,128.00 80.55,125.69 C81.25,121.52 84.69,113.92 88.19,108.83 C90.11,106.03 100.28,99.87 106.73,97.60 C109.85,96.50 112.40,96.49 121.50,97.57 C131.13,98.70 133.63,99.42 141.60,103.36 C152.32,108.67 165.46,118.29 170.68,124.65 C173.78,128.44 174.45,130.11 174.80,134.87 C175.23,140.84 173.13,148.00 170.96,148.00 C170.32,148.00 168.51,148.93 166.91,150.06 C164.45,151.82 162.34,152.15 152.71,152.31 C144.46,152.45 140.75,152.92 138.95,154.06 C137.60,154.91 134.65,156.15 132.38,156.81 C127.69,158.17 118.00,165.44 118.00,167.61 C118.00,168.40 116.76,169.58 115.25,170.23 C113.74,170.88 110.58,173.13 108.24,175.23 C105.90,177.34 102.83,179.49 101.43,180.03 ZM 101.24 177.25 L 101.26 177.24 C103.25,176.26 109.50,171.41 115.17,166.44 C128.66,154.62 132.44,153.01 149.19,151.99 C160.25,151.31 162.56,150.86 166.32,148.66 C172.01,145.32 172.88,144.15 173.61,138.83 C174.41,133.03 171.99,128.25 164.83,121.43 C154.35,111.45 134.51,100.93 122.39,98.93 C117.05,98.05 114.05,98.05 109.65,98.97 C97.99,101.39 85.47,113.24 81.66,125.45 C78.13,136.80 77.02,152.56 79.02,163.10 C79.42,165.21 80.29,167.48 81.39,169.53 C81.64,170.05 81.93,170.56 82.29,171.09 C83.64,173.22 85.19,174.97 86.64,175.80 C87.60,176.54 88.47,177.00 89.00,177.00 C89.01,177.00 89.02,177.00 89.03,177.00 C89.54,177.27 90.06,177.54 90.50,177.78 C90.94,178.03 91.40,178.23 91.87,178.39 C92.77,179.04 94.67,179.13 96.83,178.72 C98.24,178.48 99.71,177.99 101.24,177.25 ZM 116.16 75.09 C110.84,79.27 98.97,76.49 91.35,69.28 C84.25,62.55 82.25,56.66 82.55,43.42 C82.77,34.13 83.04,32.90 86.02,27.61 C91.08,18.65 95.83,16.64 105.39,19.42 C111.83,21.30 117.19,25.55 119.02,30.25 C119.71,32.04 121.33,35.08 122.60,37.00 C125.11,40.79 125.48,44.22 124.61,55.80 C124.01,63.80 120.60,71.60 116.16,75.09 ZM 76.71 92.04 C74.34,93.48 71.79,93.97 67.00,93.91 C59.96,93.83 56.02,92.48 49.31,87.87 C45.28,85.10 43.92,83.14 37.60,71.12 C34.76,65.70 34.32,54.47 36.78,50.03 C39.67,44.81 42.72,43.04 50.01,42.37 C59.21,41.51 63.13,43.33 73.15,53.15 C78.70,58.58 81.76,65.28 82.88,74.43 C83.75,81.52 83.64,82.78 81.89,86.22 C80.80,88.34 78.47,90.96 76.71,92.04 ZM 162.29 94.81 C159.64,97.90 158.96,98.15 151.98,98.56 C147.86,98.81 143.38,98.53 142.00,97.95 C139.37,96.84 135.00,92.35 135.00,90.75 C135.00,90.23 134.12,88.57 133.03,87.05 C131.36,84.70 131.05,82.48 130.93,72.12 C130.82,61.82 131.08,59.53 132.64,57.23 C133.65,55.73 134.94,53.60 135.52,52.50 C137.28,49.11 146.06,43.99 149.99,44.07 C154.75,44.16 161.66,49.32 165.36,55.56 C168.11,60.18 168.31,61.23 168.48,72.00 C168.68,84.67 167.61,88.62 162.29,94.81 ZM 115.43 71.93 C124.43,64.03 126.13,48.91 119.52,35.50 C114.71,25.73 108.56,21.01 100.65,21.00 C94.49,21.00 91.08,23.04 87.50,28.86 C83.55,35.31 82.80,47.70 85.85,56.35 C89.83,67.63 98.15,74.87 107.22,74.96 C111.09,74.99 112.56,74.45 115.43,71.93 ZM 60.63 142.00 C57.07,142.00 53.56,142.16 52.83,142.36 C47.08,143.94 35.42,136.20 28.63,126.31 C25.49,121.74 25.05,120.31 24.87,114.31 C24.64,106.07 25.91,102.66 30.23,99.94 C33.04,98.17 34.76,97.93 42.50,98.24 C51.06,98.58 51.77,98.78 56.89,102.40 C64.12,107.51 68.42,111.94 70.95,116.90 C72.79,120.50 72.96,122.02 72.36,129.21 C71.45,140.17 69.77,142.00 60.63,142.00 ZM 81.50 76.50 C81.50,71.15 81.06,68.77 79.23,65.07 C78.87,64.12 78.37,63.07 77.79,62.13 C76.89,60.66 75.96,59.28 75.02,57.99 C68.59,48.96 60.22,44.00 51.10,44.00 C45.74,44.00 44.79,44.33 41.67,47.27 C35.32,53.26 34.60,61.88 39.58,72.40 C47.06,88.20 64.33,97.37 74.70,91.04 C79.94,87.84 81.50,84.52 81.50,76.50 ZM 160.07 93.43 C165.04,88.58 167.63,81.47 167.91,74.15 C167.96,73.76 167.99,73.40 167.99,73.08 C167.98,72.59 167.96,72.08 167.91,71.55 C167.61,63.68 164.66,55.84 159.09,50.56 C156.57,48.16 154.93,47.55 150.13,47.20 C144.52,46.80 144.07,46.95 140.25,50.40 C129.05,60.51 128.76,83.41 139.69,93.61 C143.63,97.28 145.80,98.03 151.31,97.63 C155.31,97.34 156.80,96.63 160.07,93.43 ZM 27.02 119.58 C28.02,123.13 30.97,127.32 34.74,131.09 C34.95,131.36 35.16,131.61 35.35,131.81 C38.19,134.79 41.28,137.07 44.47,138.63 C46.31,139.68 48.15,140.51 49.89,141.04 C54.29,142.37 61.03,142.08 64.55,140.41 C69.17,138.22 72.48,131.38 71.59,125.86 C70.11,116.58 61.79,105.97 53.00,102.13 C35.61,94.54 22.48,103.36 27.02,119.58 Z" fill="rgb(234,252,253)"/>
    <path d="M 0.00 100.00 L 0.00 0.00 L 100.00 0.00 L 200.00 0.00 L 200.00 100.00 L 200.00 200.00 L 100.00 200.00 L 0.00 200.00 L 0.00 100.00 ZM 101.43 180.03 C102.83,179.49 105.90,177.34 108.24,175.23 C110.58,173.13 113.74,170.88 115.25,170.23 C116.76,169.58 118.00,168.40 118.00,167.61 C118.00,165.44 127.69,158.17 132.38,156.81 C134.65,156.15 137.60,154.91 138.95,154.06 C140.75,152.92 144.46,152.45 152.71,152.31 C162.34,152.15 164.45,151.82 166.91,150.06 C168.51,148.93 170.32,148.00 170.96,148.00 C173.13,148.00 175.23,140.84 174.80,134.87 C174.45,130.11 173.78,128.44 170.68,124.65 C165.46,118.29 152.32,108.67 141.60,103.36 C133.63,99.42 131.13,98.70 121.50,97.57 C112.40,96.49 109.85,96.50 106.73,97.60 C100.28,99.87 90.11,106.03 88.19,108.83 C84.69,113.92 81.25,121.52 80.55,125.69 C80.16,128.00 79.19,130.43 78.38,131.10 C77.18,132.10 77.04,134.43 77.60,144.47 C78.05,152.59 77.91,157.30 77.18,158.66 C75.55,161.72 79.35,171.96 83.98,176.98 C87.46,180.75 88.04,181.00 93.28,181.00 C96.35,181.00 100.02,180.56 101.43,180.03 ZM 60.63 142.00 C69.77,142.00 71.45,140.17 72.36,129.21 C72.96,122.02 72.79,120.50 70.95,116.90 C68.42,111.94 64.12,107.51 56.89,102.40 C51.77,98.78 51.06,98.58 42.50,98.24 C34.76,97.93 33.04,98.17 30.23,99.94 C25.91,102.66 24.64,106.07 24.87,114.31 C25.05,120.31 25.49,121.74 28.63,126.31 C35.42,136.20 47.08,143.94 52.83,142.36 C53.56,142.16 57.07,142.00 60.63,142.00 ZM 162.29 94.81 C167.61,88.62 168.68,84.67 168.48,72.00 C168.31,61.23 168.11,60.18 165.36,55.56 C161.66,49.32 154.75,44.16 149.99,44.07 C146.06,43.99 137.28,49.11 135.52,52.50 C134.94,53.60 133.65,55.73 132.64,57.23 C131.08,59.53 130.82,61.82 130.93,72.12 C131.05,82.48 131.36,84.70 133.03,87.05 C134.12,88.57 135.00,90.23 135.00,90.75 C135.00,92.35 139.37,96.84 142.00,97.95 C143.38,98.53 147.86,98.81 151.98,98.56 C158.96,98.15 159.64,97.90 162.29,94.81 ZM 76.71 92.04 C78.47,90.96 80.80,88.34 81.89,86.22 C83.64,82.78 83.75,81.52 82.88,74.43 C81.76,65.28 78.70,58.58 73.15,53.15 C63.13,43.33 59.21,41.51 50.01,42.37 C42.72,43.04 39.67,44.81 36.78,50.03 C34.32,54.47 34.76,65.70 37.60,71.12 C43.92,83.14 45.28,85.10 49.31,87.87 C56.02,92.48 59.96,93.83 67.00,93.91 C71.79,93.97 74.34,93.48 76.71,92.04 ZM 116.16 75.09 C120.60,71.60 124.01,63.80 124.61,55.80 C125.48,44.22 125.11,40.79 122.60,37.00 C121.33,35.08 119.71,32.04 119.02,30.25 C117.19,25.55 111.83,21.30 105.39,19.42 C95.83,16.64 91.08,18.65 86.02,27.61 C83.04,32.90 82.77,34.13 82.55,43.42 C82.25,56.66 84.25,62.55 91.35,69.28 C98.97,76.49 110.84,79.27 116.16,75.09 Z" fill="rgb(254,254,254)"/>
  </g>
</svg>